<?xml version="1.0" standalone="no"?>
<!DOCTYPE svg PUBLIC "-//W3C//DTD SVG 20010904//EN"
 "http://www.w3.org/TR/2001/REC-SVG-20010904/DTD/svg10.dtd">
<svg version="1.0" xmlns="http://www.w3.org/2000/svg"
 width="542.000000pt" height="203.000000pt" viewBox="0 0 542.000000 203.000000"
 preserveAspectRatio="xMidYMid meet">

<g transform="translate(0.000000,203.000000) scale(0.100000,-0.100000)"
fill="#000000" stroke="none">
<path d="M970 1826 c-110 -25 -194 -90 -246 -193 -26 -53 -29 -67 -29 -158 0
-156 -8 -145 445 -600 270 -271 391 -399 397 -420 38 -144 -53 -275 -191 -275
-76 1 -121 27 -230 138 l-99 100 21 51 c27 60 27 93 3 146 -36 80 -104 114
-196 100 -87 -12 -157 -113 -140 -198 24 -113 145 -175 258 -132 13 6 46 -20
135 -107 82 -81 129 -119 157 -128 163 -55 335 63 335 227 0 108 9 97 -414
523 -444 447 -441 443 -441 575 0 101 32 172 106 239 66 60 128 80 228 74 104
-6 149 -31 262 -144 52 -52 99 -94 106 -94 7 0 56 43 110 95 127 124 159 140
283 140 79 0 102 -4 137 -23 62 -33 106 -74 136 -131 73 -133 49 -276 -66
-395 -38 -39 -37 -39 -135 -37 l-72 1 -37 75 c-23 46 -43 74 -51 73 -8 -2 -42
-57 -75 -123 -34 -65 -67 -121 -74 -123 -7 -2 -25 19 -40 47 -15 28 -33 51
-39 51 -6 0 -22 -21 -36 -47 -13 -27 -31 -48 -39 -48 -8 0 -40 51 -76 120 -33
66 -67 121 -75 123 -8 1 -28 -27 -51 -73 -20 -41 -42 -76 -49 -76 -7 -1 -38
-1 -68 0 -62 1 -86 -9 -77 -33 6 -14 21 -16 94 -14 l87 3 24 48 c14 26 31 47
38 47 8 0 42 -56 76 -125 35 -69 68 -125 75 -125 7 0 21 17 32 38 37 72 56 74
87 7 11 -22 26 -40 34 -40 9 0 40 48 77 120 33 66 67 120 74 120 7 0 25 -20
39 -45 l26 -45 103 -3 102 -3 55 56 c124 125 155 294 82 439 -68 134 -234 214
-383 187 -89 -17 -138 -45 -235 -137 -48 -46 -91 -84 -95 -84 -4 0 -49 40
-101 89 -69 67 -106 94 -146 109 -72 26 -152 33 -218 18z m-15 -1170 c59 -39
74 -122 32 -185 -71 -107 -237 -55 -237 74 0 106 117 169 205 111z"/>
<path d="M2330 1244 l0 -176 131 3 131 4 29 33 c38 43 39 84 1 122 -27 27 -28
28 -10 50 20 25 23 62 7 92 -18 34 -70 48 -184 48 l-105 0 0 -176z m201 106
c10 -6 19 -19 19 -30 0 -27 -30 -40 -89 -40 l-51 0 0 40 0 40 51 0 c28 0 59
-5 70 -10z m24 -143 c13 -10 16 -21 12 -39 -8 -30 -30 -38 -104 -38 l-53 0 0
45 0 45 63 0 c37 0 71 -6 82 -13z"/>
<path d="M2795 1406 c-86 -39 -128 -142 -91 -229 16 -38 76 -94 112 -103 46
-12 143 1 172 23 37 27 70 78 78 120 13 71 -36 162 -103 189 -41 18 -129 17
-168 0z m143 -62 c12 -8 29 -28 37 -44 59 -113 -74 -225 -167 -141 -30 27 -33
35 -33 86 0 51 3 59 33 86 37 33 93 39 130 13z"/>
<path d="M3193 1395 c-110 -66 -109 -236 3 -301 39 -23 53 -26 114 -22 76 4
109 21 146 76 60 87 23 219 -73 258 -54 23 -141 18 -190 -11z m170 -56 c37
-28 53 -86 37 -133 -27 -81 -115 -103 -176 -42 -29 29 -34 41 -34 81 0 40 5
52 34 81 41 41 97 47 139 13z"/>
<path d="M3550 1245 l0 -175 40 0 40 0 0 40 c0 42 24 90 44 89 6 0 34 -29 61
-64 49 -63 51 -64 98 -65 l48 0 -77 95 -76 95 72 80 72 80 -44 0 c-41 1 -46
-3 -120 -82 l-78 -83 0 83 0 82 -40 0 -40 0 0 -175z"/>
<path d="M3920 1245 l0 -175 35 0 35 0 0 175 0 175 -35 0 -35 0 0 -175z"/>
<path d="M4080 1245 l0 -175 40 0 39 0 3 102 3 103 84 -103 c76 -93 86 -102
117 -102 l34 0 0 175 0 175 -40 0 -39 0 -3 -106 -3 -106 -84 106 c-77 97 -87
106 -118 106 l-33 0 0 -175z"/>
<path d="M4545 1397 c-112 -62 -112 -240 0 -305 34 -19 52 -22 115 -20 52 2
84 9 103 21 25 16 27 22 27 87 l0 70 -40 0 -39 0 -3 -57 -3 -58 -48 -3 c-43
-3 -51 0 -82 31 -30 30 -35 42 -35 82 0 40 5 52 34 81 40 40 92 46 142 15 32
-19 32 -19 53 3 12 12 21 25 21 29 0 4 -18 16 -40 27 -56 28 -151 27 -205 -3z"/>
<path d="M2393 905 c-109 -66 -109 -236 1 -300 69 -40 194 -31 234 17 11 14 9
19 -14 37 -26 21 -26 21 -51 1 -39 -30 -95 -26 -135 9 -30 27 -33 35 -33 86 0
51 3 59 33 86 40 36 96 39 136 8 l27 -21 24 22 c20 19 23 26 12 38 -39 48
-167 57 -234 17z"/>
<path d="M2700 755 l0 -175 125 0 125 0 0 30 0 29 -87 3 -88 3 -3 143 -3 142
-34 0 -35 0 0 -175z"/>
<path d="M3000 755 l0 -175 35 0 35 0 0 175 0 175 -35 0 -35 0 0 -175z"/>
<path d="M3160 755 l0 -175 35 0 35 0 0 101 c0 59 4 99 9 97 6 -1 46 -47 91
-100 69 -84 84 -98 110 -98 l30 0 0 175 0 175 -35 0 -34 0 -3 -107 -3 -108
-85 107 c-76 96 -88 107 -117 107 l-33 1 0 -175z"/>
<path d="M3560 755 l0 -175 40 0 40 0 0 175 0 175 -40 0 -40 0 0 -175z"/>
<path d="M3783 905 c-109 -66 -109 -236 1 -300 68 -40 194 -31 233 17 11 12 8
19 -12 38 l-24 22 -27 -21 c-40 -31 -96 -28 -136 8 -30 27 -33 35 -33 86 0 51
3 59 33 86 40 36 96 39 136 8 l27 -21 24 22 c20 19 23 26 12 38 -39 48 -167
57 -234 17z"/>
</g>
</svg>
